<svg xmlns="http://www.w3.org/2000/svg" xmlns:xlink="http://www.w3.org/1999/xlink" width="201" height="130" overflow="hidden"><defs><clipPath id="clip0"><rect x="555" y="482" width="201" height="130"/></clipPath><clipPath id="clip1"><rect x="556" y="483" width="199" height="128"/></clipPath><clipPath id="clip2"><rect x="556" y="483" width="199" height="128"/></clipPath><clipPath id="clip3"><rect x="556" y="483" width="199" height="181"/></clipPath></defs><g clip-path="url(#clip0)" transform="translate(-555 -482)"><g clip-path="url(#clip1)"><g clip-path="url(#clip2)"><g clip-path="url(#clip3)"><path d="M10.1944 95.0548 10.1944 97.2225C16.7188 95.5699 23.5866 91.6424 27.321 88.1441 29.8964 85.7403 32.0426 82.9932 33.781 79.7525 33.8025 79.7095 33.8884 79.5808 33.9098 79.5378 35.4551 76.5546 36.6784 73.0993 37.5369 69.0215 39.8762 57.7755 36.3994 46.3577 35.5838 44.9842 34.8971 43.8252 33.6094 43.8896 32.7294 43.8896 32.5148 43.8896 32.3216 43.8896 32.107 43.8896L10.1944 43.8896 10.1944 69.7083 27.1064 69.7083C27.1922 69.7083 27.5142 69.7297 27.6 69.7512 28.158 69.8371 28.5873 70.2448 28.6731 70.7599 28.716 70.9101 28.7375 71.0818 28.716 71.2535 28.5873 76.2971 25.9904 86.47 11.5036 92.973L10.1729 93.531 10.1729 95.0548Z" transform="matrix(1.0024 0 0 1 556 483.011)"/><path d="M49.1263 44.0613 54.7923 44.0613 54.7923 44.9842 50.2209 44.9842 50.2209 47.6025 54.4918 47.6025 54.4918 48.5254 50.2209 48.5254 50.2209 51.3584 54.8352 51.3584 54.8352 52.2812 49.1263 52.2812 49.1263 44.0613Z" transform="matrix(1.0024 0 0 1 556 483.011)"/><path d="M58.2476 44.9842 55.5005 44.9842 55.5005 44.0613 62.0678 44.0613 62.0678 44.9842 59.3207 44.9842 59.3207 52.2812 58.2262 52.2812 58.2262 44.9842Z" transform="matrix(1.0024 0 0 1 556 483.011)"/><path d="M64.3857 44.0613 65.5876 44.0613 68.8069 52.2812 67.605 52.2812 66.7036 49.8131 63.2268 49.8131 62.3039 52.2812 61.1664 52.2812 64.3857 44.0613ZM63.5702 48.8902 66.3602 48.8902 64.9867 45.0485 64.9652 45.0485 63.5702 48.8902Z" transform="matrix(1.0024 0 0 1 556 483.011)"/><path d="M70.6311 44.9842 67.884 44.9842 67.884 44.0613 74.4728 44.0613 74.4728 44.9842 71.7257 44.9842 71.7257 52.2812 70.6311 52.2812 70.6311 44.9842Z" transform="matrix(1.0024 0 0 1 556 483.011)"/><path d="M79.0228 44.0613 81.8343 44.0613C84.3668 44.0613 85.7833 45.3276 85.7833 47.9674 85.7833 50.7145 84.5814 52.2598 81.8343 52.2598L79.0228 52.2598 79.0228 44.0613ZM80.1173 51.3584 81.9416 51.3584C82.6927 51.3584 84.7102 51.1437 84.7102 48.1176 84.7102 46.1646 83.9805 44.9842 81.963 44.9842L80.1173 44.9842 80.1173 51.3584Z" transform="matrix(1.0024 0 0 1 556 483.011)"/><path d="M87.35 44.0613 93.0159 44.0613 93.0159 44.9842 88.4445 44.9842 88.4445 47.6025 92.7155 47.6025 92.7155 48.5254 88.4445 48.5254 88.4445 51.3584 93.0588 51.3584 93.0588 52.2812 87.35 52.2812 87.35 44.0613Z" transform="matrix(1.0024 0 0 1 556 483.011)"/><path d="M98.0165 44.0613 103.403 44.0613 103.403 44.9842 99.1111 44.9842 99.1111 47.6025 102.888 47.6025 102.888 48.5254 99.1111 48.5254 99.1111 52.2812 98.0165 52.2812 98.0165 44.0613Z" transform="matrix(1.0024 0 0 1 556 483.011)"/><path d="M104.863 44.0613 108.726 44.0613C110.271 44.0613 111.216 44.8983 111.216 46.2075 111.216 47.1947 110.786 48.0103 109.799 48.2893L109.799 48.3108C110.765 48.5039 110.958 49.1907 111.022 50.0062 111.087 50.8218 111.044 51.7017 111.495 52.2812L110.271 52.2812C109.971 51.9378 110.143 51.0579 109.971 50.2638 109.864 49.4697 109.67 48.7829 108.597 48.7829L105.936 48.7829 105.936 52.3027 104.841 52.3027 104.841 44.0613ZM108.232 47.8601C109.263 47.8601 110.121 47.6025 110.121 46.4007 110.121 45.6066 109.692 45.0056 108.662 45.0056L105.957 45.0056 105.957 47.8601 108.232 47.8601Z" transform="matrix(1.0024 0 0 1 556 483.011)"/><path d="M112.997 44.0613 114.092 44.0613 114.092 52.2812 112.997 52.2812 112.997 44.0613Z" transform="matrix(1.0024 0 0 1 556 483.011)"/><path d="M116.152 44.0613 119.135 44.0613C119.865 44.0613 120.809 44.0613 121.303 44.3618 121.839 44.6837 122.269 45.2632 122.269 46.0787 122.269 46.9587 121.818 47.6025 121.045 47.9244L121.045 47.9459C122.054 48.1605 122.612 48.9117 122.612 49.9204 122.612 51.1223 121.753 52.2812 120.122 52.2812L116.152 52.2812 116.152 44.0613ZM117.246 47.6025 119.436 47.6025C120.68 47.6025 121.174 47.1518 121.174 46.2933 121.174 45.1559 120.38 44.9842 119.436 44.9842L117.246 44.9842 117.246 47.6025ZM117.246 51.3584 119.994 51.3584C120.938 51.3584 121.539 50.7789 121.539 49.8775 121.539 48.8044 120.68 48.5039 119.757 48.5039L117.268 48.5039 117.268 51.3584Z" transform="matrix(1.0024 0 0 1 556 483.011)"/><path d="M127.741 43.8681C130.36 43.8681 131.669 45.95 131.669 48.1605 131.669 50.3926 130.338 52.4744 127.741 52.4744 125.123 52.4744 123.814 50.414 123.814 48.1605 123.792 45.95 125.123 43.8681 127.741 43.8681ZM127.741 51.5515C129.737 51.5515 130.574 49.8346 130.574 48.1605 130.574 46.508 129.737 44.7695 127.741 44.7695 125.745 44.7695 124.908 46.4865 124.908 48.1605 124.887 49.8346 125.745 51.5515 127.741 51.5515Z" transform="matrix(1.0024 0 0 1 556 483.011)"/><path d="M139.781 49.3195C139.781 51.3798 138.601 52.4744 136.541 52.4744 134.416 52.4744 133.171 51.4871 133.171 49.3195L133.171 44.0828 134.266 44.0828 134.266 49.3195C134.266 50.7789 135.103 51.5515 136.541 51.5515 137.914 51.5515 138.687 50.7574 138.687 49.3195L138.687 44.0828 139.781 44.0828 139.781 49.3195Z" transform="matrix(1.0024 0 0 1 556 483.011)"/><path d="M141.756 44.0613 145.619 44.0613C147.164 44.0613 148.109 44.8983 148.109 46.2075 148.109 47.1947 147.679 48.0103 146.692 48.2893L146.692 48.3108C147.658 48.5039 147.851 49.1907 147.915 50.0062 147.98 50.8218 147.937 51.7017 148.409 52.2812L147.186 52.2812C146.864 51.9378 147.057 51.0579 146.885 50.2638 146.778 49.4697 146.585 48.7829 145.512 48.7829L142.85 48.7829 142.85 52.3027 141.756 52.3027 141.756 44.0613ZM145.125 47.8601C146.156 47.8601 147.036 47.6025 147.036 46.4007 147.036 45.6066 146.606 45.0056 145.576 45.0056L142.85 45.0056 142.85 47.8601 145.125 47.8601Z" transform="matrix(1.0024 0 0 1 556 483.011)"/><path d="M156.007 51.251C155.384 52.1095 154.333 52.4744 153.367 52.4744 150.92 52.4744 149.461 50.4784 149.461 48.3322 149.461 45.95 150.77 43.8681 153.367 43.8681 155.17 43.8681 156.586 44.6837 156.908 46.5938L155.813 46.5938C155.599 45.349 154.59 44.791 153.367 44.791 151.371 44.791 150.555 46.508 150.555 48.2678 150.555 49.9848 151.543 51.5515 153.367 51.5515 155.062 51.5515 156.071 50.3711 156.007 48.8688L153.388 48.8688 153.388 47.9459 156.994 47.9459 156.994 52.2812 156.307 52.2812 156.007 51.251Z" transform="matrix(1.0024 0 0 1 556 483.011)"/><path d="M53.8694 62.9049C53.7406 61.7245 52.968 61.2308 51.8305 61.2308 50.9076 61.2308 49.9848 61.5742 49.9848 62.6259 49.9848 63.6346 51.294 63.7848 52.6246 64.0853 53.9338 64.3857 55.243 64.8364 55.243 66.4675 55.243 68.2059 53.526 68.9142 52.0237 68.9142 50.1779 68.9142 48.6327 68.0128 48.6327 66.0168L49.6629 66.0168C49.6629 67.3904 50.8218 67.9913 52.0451 67.9913 53.0324 67.9913 54.1269 67.6909 54.1269 66.489 54.1269 65.3515 52.8178 65.1584 51.5086 64.8793 50.1994 64.6003 48.8688 64.214 48.8688 62.7117 48.8688 61.0377 50.3496 60.308 51.852 60.308 53.526 60.308 54.8137 61.1021 54.8781 62.9049L53.8694 62.9049Z" transform="matrix(1.0024 0 0 1 556 483.011)"/><path d="M58.2047 61.424 55.4576 61.424 55.4576 60.5011 62.0249 60.5011 62.0249 61.424 59.2778 61.424 59.2778 68.721 58.1832 68.721 58.1832 61.424Z" transform="matrix(1.0024 0 0 1 556 483.011)"/><path d="M64.3428 60.5011 65.5447 60.5011 68.764 68.721 67.5621 68.721 66.6607 66.2529 63.1839 66.2529 62.261 68.721 61.145 68.721 64.3428 60.5011ZM63.5273 65.3086 66.3173 65.3086 64.9437 61.4669 64.9223 61.4669 63.5273 65.3086Z" transform="matrix(1.0024 0 0 1 556 483.011)"/><path d="M72.0262 60.5011 73.228 60.5011 76.4473 68.721 75.2455 68.721 74.3441 66.2529 70.8672 66.2529 69.9444 68.721 68.8069 68.721 72.0262 60.5011ZM71.2106 65.3086 74.0007 65.3086 72.6271 61.4669 72.6056 61.4669 71.2106 65.3086Z" transform="matrix(1.0024 0 0 1 556 483.011)"/><path d="M78.2716 61.424 75.5459 61.424 75.5459 60.5011 82.1133 60.5011 82.1133 61.424 79.3661 61.424 79.3661 68.721 78.2716 68.721 78.2716 61.424Z" transform="matrix(1.0024 0 0 1 556 483.011)"/><path d="M86.6632 60.5011 92.0716 60.5011 92.0716 61.424 87.7792 61.424 87.7792 64.0423 91.5565 64.0423 91.5565 64.9652 87.7792 64.9652 87.7792 68.721 86.6847 68.721 86.6847 60.5011Z" transform="matrix(1.0024 0 0 1 556 483.011)"/><path d="M93.4881 60.5011 97.3512 60.5011C98.8965 60.5011 99.8408 61.3381 99.8408 62.6473 99.8408 63.6346 99.4116 64.4501 98.4243 64.7291L98.4243 64.7506C99.3686 64.9437 99.5833 65.6305 99.6476 66.4461 99.712 67.2402 99.6691 68.1416 100.141 68.721L98.9179 68.721C98.6175 68.3776 98.7892 67.4977 98.6175 66.7036 98.5102 65.8881 98.317 65.2227 97.2439 65.2227L94.5826 65.2227 94.5826 68.7425 93.4881 68.7425 93.4881 60.5011ZM96.8576 64.2784C97.8878 64.2784 98.7462 64.0209 98.7462 62.819 98.7462 62.0249 98.317 61.424 97.2868 61.424L94.5612 61.424 94.5612 64.2784 96.8576 64.2784Z" transform="matrix(1.0024 0 0 1 556 483.011)"/><path d="M101.601 60.5011 107.267 60.5011 107.267 61.424 102.695 61.424 102.695 64.0423 106.966 64.0423 106.966 64.9652 102.695 64.9652 102.695 67.7982 107.31 67.7982 107.31 68.721 101.601 68.721 101.601 60.5011Z" transform="matrix(1.0024 0 0 1 556 483.011)"/><path d="M108.898 60.5011 109.992 60.5011 109.992 68.721 108.898 68.721 108.898 60.5011Z" transform="matrix(1.0024 0 0 1 556 483.011)"/><path d="M112.053 60.5011 115.036 60.5011C115.766 60.5011 116.71 60.5011 117.203 60.8016 117.74 61.1235 118.169 61.703 118.169 62.5185 118.169 63.3985 117.697 64.0423 116.946 64.3643L116.946 64.3857C117.955 64.6003 118.513 65.3515 118.513 66.3602 118.513 67.5621 117.654 68.721 116.023 68.721L112.053 68.721 112.053 60.5011ZM113.147 64.0209 115.336 64.0209C116.581 64.0209 117.075 63.5702 117.075 62.7117 117.075 61.5742 116.259 61.4025 115.336 61.4025L113.147 61.4025 113.147 64.0209ZM113.147 67.7982 115.894 67.7982C116.839 67.7982 117.44 67.2187 117.44 66.3173 117.44 65.2442 116.581 64.9437 115.658 64.9437L113.169 64.9437 113.169 67.7982Z" transform="matrix(1.0024 0 0 1 556 483.011)"/><path d="M126.711 65.7378C126.711 67.8196 125.531 68.8927 123.47 68.8927 121.346 68.8927 120.101 67.9269 120.101 65.7378L120.101 60.5011 121.195 60.5011 121.195 65.7378C121.195 67.1972 122.032 67.9913 123.47 67.9913 124.844 67.9913 125.617 67.1972 125.617 65.7378L125.617 60.5011 126.711 60.5011 126.711 65.7378Z" transform="matrix(1.0024 0 0 1 556 483.011)"/><path d="M128.686 60.5011 132.549 60.5011C134.094 60.5011 135.038 61.3381 135.038 62.6473 135.038 63.6346 134.609 64.4501 133.622 64.7291L133.622 64.7506C134.566 64.9437 134.781 65.6305 134.845 66.4461 134.91 67.2402 134.867 68.1416 135.317 68.721L134.094 68.721C133.794 68.3776 133.965 67.4977 133.794 66.7036 133.686 65.8881 133.493 65.2227 132.42 65.2227L129.759 65.2227 129.759 68.7425 128.664 68.7425 128.664 60.5011ZM132.055 64.2784C133.085 64.2784 133.944 64.0209 133.944 62.819 133.944 62.0249 133.515 61.424 132.484 61.424L129.78 61.424 129.78 64.2784 132.055 64.2784Z" transform="matrix(1.0024 0 0 1 556 483.011)"/><path d="M142.936 67.6909C142.314 68.5493 141.262 68.9142 140.297 68.9142 137.85 68.9142 136.39 66.9182 136.39 64.772 136.39 62.3683 137.7 60.308 140.297 60.308 142.099 60.308 143.516 61.1021 143.838 63.0336L142.743 63.0336C142.529 61.7888 141.52 61.2308 140.297 61.2308 138.301 61.2308 137.485 62.9478 137.485 64.7291 137.485 66.4461 138.472 68.0128 140.297 68.0128 141.992 68.0128 143.001 66.8324 142.936 65.3301L140.318 65.3301 140.318 64.3857 143.924 64.3857 143.924 68.721 143.237 68.721 142.936 67.6909Z" transform="matrix(1.0024 0 0 1 556 483.011)"/></g></g></g></g></svg>