{"accessors" : [{"bufferView" : 0, "byteOffset" : 0, "componentType" : 5123, "count" : 3348, "type" : "SCALAR", "max" : [3347], "min" : [0]}, {"bufferView" : 1, "byteOffset" : 0, "componentType" : 5126, "count" : 3348, "type" : "VEC3", "max" : [61.00680160522461, 19.7539005279541, 2.5], "min" : [0.00390625, 0.359375, -2.5], "name" : "POSITION"}, {"bufferView" : 1, "byteOffset" : 12, "componentType" : 5126, "count" : 3348, "type" : "VEC3", "max" : [1.0000044107437134, 1.0000044107437134, 1.0000044107437134], "min" : [-1.0000044107437134, -1.0000044107437134, -1.0000044107437134], "name" : "NORMAL"}], "asset" : {"generator" : "Aspose.3D 22.3", "version" : "2.0"}, "buffers" : [{"uri" : "data:application/octet-stream;base64,", "byteLength" : 87056}], "bufferViews" : [{"buffer" : 0, "byteOffset" : 0, "byteLength" : 6696, "target" : 34963}, {"buffer" : 0, "byteOffset" : 6700, "byteLength" : 80352, "byteStride" : 24, "target" : 34962}], "meshes" : [{"primitives" : [{"attributes" : {"POSITION" : 1, "NORMAL" : 2}, "indices" : 0, "mode" : 4}], "name" : "OpenSCAD_Model"}], "nodes" : [{"mesh" : 0, "name" : "OpenSCAD_Model"}], "scene" : 0, "scenes" : [{"nodes" : [0]}]}