<svg width="231" height="74" viewBox="0 0 231 74" fill="none" xmlns="http://www.w3.org/2000/svg">
<path d="M25.2401 73.0909C20.1946 73.0909 15.8423 71.9773 12.1832 69.75C8.54688 67.5 5.74006 64.3636 3.76278 60.3409C1.80824 56.2955 0.830966 51.5909 0.830966 46.2273C0.830966 40.8636 1.80824 36.1364 3.76278 32.0455C5.74006 27.9318 8.49006 24.7273 12.0128 22.4318C15.5582 20.1136 19.6946 18.9545 24.4219 18.9545C27.1491 18.9545 29.8423 19.4091 32.5014 20.3182C35.1605 21.2273 37.581 22.7045 39.7628 24.75C41.9446 26.7727 43.6832 29.4545 44.9787 32.7955C46.2741 36.1364 46.9219 40.25 46.9219 45.1364V48.5455H6.55824V41.5909H38.7401C38.7401 38.6364 38.1491 36 36.9673 33.6818C35.8082 31.3636 34.1491 29.5341 31.9901 28.1932C29.8537 26.8523 27.331 26.1818 24.4219 26.1818C21.2173 26.1818 18.4446 26.9773 16.1037 28.5682C13.7855 30.1364 12.0014 32.1818 10.7514 34.7045C9.50142 37.2273 8.87642 39.9318 8.87642 42.8182V47.4545C8.87642 51.4091 9.55824 54.7614 10.9219 57.5114C12.3082 60.2386 14.2287 62.3182 16.6832 63.75C19.1378 65.1591 21.9901 65.8636 25.2401 65.8636C27.3537 65.8636 29.2628 65.5682 30.9673 64.9773C32.6946 64.3636 34.1832 63.4545 35.4332 62.25C36.6832 61.0227 37.6491 59.5 38.331 57.6818L46.1037 59.8636C45.2855 62.5 43.9105 64.8182 41.9787 66.8182C40.0469 68.7955 37.6605 70.3409 34.8196 71.4545C31.9787 72.5455 28.7855 73.0909 25.2401 73.0909ZM59.1605 72V19.6364H67.206V72H59.1605ZM63.2514 10.9091C61.6832 10.9091 60.331 10.375 59.1946 9.30682C58.081 8.23864 57.5241 6.95455 57.5241 5.45455C57.5241 3.95455 58.081 2.67045 59.1946 1.60227C60.331 0.53409 61.6832 0 63.2514 0C64.8196 0 66.1605 0.53409 67.2741 1.60227C68.4105 2.67045 68.9787 3.95455 68.9787 5.45455C68.9787 6.95455 68.4105 8.23864 67.2741 9.30682C66.1605 10.375 64.8196 10.9091 63.2514 10.9091ZM89.4418 52.9091L89.3054 42.9545H90.9418L113.851 19.6364H123.805L99.3963 44.3182H98.7145L89.4418 52.9091ZM81.9418 72V2.18182H89.9872V72H81.9418ZM115.214 72L94.7599 46.0909L100.487 40.5L125.442 72H115.214ZM153.277 73.0909C148.55 73.0909 144.402 71.9659 140.834 69.7159C137.288 67.4659 134.516 64.3182 132.516 60.2727C130.538 56.2273 129.55 51.5 129.55 46.0909C129.55 40.6364 130.538 35.875 132.516 31.8068C134.516 27.7386 137.288 24.5795 140.834 22.3295C144.402 20.0795 148.55 18.9545 153.277 18.9545C158.004 18.9545 162.141 20.0795 165.686 22.3295C169.254 24.5795 172.027 27.7386 174.004 31.8068C176.004 35.875 177.004 40.6364 177.004 46.0909C177.004 51.5 176.004 56.2273 174.004 60.2727C172.027 64.3182 169.254 67.4659 165.686 69.7159C162.141 71.9659 158.004 73.0909 153.277 73.0909ZM153.277 65.8636C156.868 65.8636 159.822 64.9432 162.141 63.1023C164.459 61.2614 166.175 58.8409 167.288 55.8409C168.402 52.8409 168.959 49.5909 168.959 46.0909C168.959 42.5909 168.402 39.3295 167.288 36.3068C166.175 33.2841 164.459 30.8409 162.141 28.9773C159.822 27.1136 156.868 26.1818 153.277 26.1818C149.686 26.1818 146.732 27.1136 144.413 28.9773C142.095 30.8409 140.379 33.2841 139.266 36.3068C138.152 39.3295 137.595 42.5909 137.595 46.0909C137.595 49.5909 138.152 52.8409 139.266 55.8409C140.379 58.8409 142.095 61.2614 144.413 63.1023C146.732 64.9432 149.686 65.8636 153.277 65.8636ZM197.331 40.5V72H189.286V19.6364H197.058V27.8182H197.74C198.967 25.1591 200.831 23.0227 203.331 21.4091C205.831 19.7727 209.058 18.9545 213.013 18.9545C216.558 18.9545 219.661 19.6818 222.32 21.1364C224.979 22.5682 227.047 24.75 228.524 27.6818C230.001 30.5909 230.74 34.2727 230.74 38.7273V72H222.695V39.2727C222.695 35.1591 221.626 31.9545 219.49 29.6591C217.354 27.3409 214.422 26.1818 210.695 26.1818C208.126 26.1818 205.831 26.7386 203.808 27.8523C201.808 28.9659 200.229 30.5909 199.07 32.7273C197.911 34.8636 197.331 37.4545 197.331 40.5Z" fill="black"/>
</svg>
